<svg width="38" height="38" viewBox="0 0 38 38" fill="none" xmlns="http://www.w3.org/2000/svg">
<path d="M16.8787 35.2634C15.7071 34.0919 15.7071 32.1924 16.8787 31.0208L18.2929 29.6066C19.4645 28.435 21.364 28.435 22.5356 29.6066V29.6066C23.7071 30.7782 23.7071 32.6777 22.5356 33.8492L21.1213 35.2634C19.9498 36.435 18.0503 36.435 16.8787 35.2634V35.2634Z" fill="#171717"/>
<path d="M15.4644 8.39351C14.2928 7.22193 14.2928 5.32244 15.4644 4.15087L16.8786 2.73665C18.0502 1.56508 19.9497 1.56508 21.1213 2.73665V2.73665C22.2928 3.90822 22.2928 5.80772 21.1213 6.97929L19.707 8.39351C18.5355 9.56508 16.636 9.56508 15.4644 8.39351V8.39351Z" fill="#171717"/>
<path d="M26.0711 30.3137C23.7279 27.9705 23.7279 24.1715 26.0711 21.8284L33.1421 14.7573V14.7573C35.4853 17.1005 35.4853 20.8995 33.1421 23.2426L26.0711 30.3137V30.3137Z" fill="#171717"/>
<path d="M4.85794 23.2426C2.51479 20.8995 2.51479 17.1005 4.85794 14.7573L11.929 7.68626V7.68626C14.2722 10.0294 14.2722 13.8284 11.929 16.1715L4.85794 23.2426V23.2426Z" fill="#171717"/>
<path d="M7.68634 26.0711L21.8285 11.929C24.1716 9.58582 27.9706 9.58582 30.3138 11.929V11.929L16.1716 26.0711C13.8285 28.4143 10.0295 28.4143 7.68634 26.0711V26.0711Z" fill="#171717"/>
</svg>
